<svg width="175" height="25" viewBox="0 0 175 25" fill="none" xmlns="http://www.w3.org/2000/svg">
<g clip-path="url(#clip0_2079_211)">
<path d="M0 24.22V0H7.48C12.84 0 17.37 1.31 17.37 7.45C17.37 11.84 14.37 14.72 8.99 14.89H5.2V24.22H0ZM5.2 10.87C8.08 10.73 11.84 11.74 11.84 7.45C11.84 3.16 8.08 4.16 5.2 4V10.87ZM20.57 0H25.6V24.22H20.57V0ZM34.78 17.14C34.78 19.32 35.08 21.36 37.66 21.36C38.3558 21.4583 39.0628 21.2874 39.637 20.8824C40.2112 20.4773 40.6092 19.8684 40.75 19.18H45.27C44.84 23.34 41.58 24.72 37.66 24.72C31.89 24.72 29.58 21.46 29.58 15.83C29.58 10.77 32.58 6.88 37.66 6.88C40.81 6.88 43.43 7.95 44.84 10.88C45.2858 11.826 45.5697 12.8401 45.68 13.88C45.7896 14.9496 45.833 16.025 45.81 17.1L34.78 17.14ZM40.61 13.78C40.61 11.94 40.11 10.23 37.61 10.23C35.11 10.23 34.79 11.94 34.73 13.78H40.61ZM49.38 12.14C49.3433 11.3071 49.5366 10.4802 49.9388 9.74991C50.341 9.01964 50.9365 8.4142 51.66 8C53.2034 7.20942 54.9282 6.84032 56.66 6.93C60.05 6.93 63.84 8.17 63.84 13.23V22.42C63.8597 23.0225 63.9132 23.6235 64 24.22H59.51C59.4079 23.4842 59.3511 22.7428 59.34 22H59.27C58.7564 22.898 57.9995 23.6325 57.0866 24.1191C56.1736 24.6056 55.1418 24.8243 54.11 24.75C50.95 24.75 48.61 22.94 48.61 19.65C48.6216 18.5078 48.9679 17.3942 49.606 16.4468C50.244 15.4995 51.1459 14.76 52.2 14.32C54.3018 13.5588 56.5404 13.2487 58.77 13.41V11.81C58.7614 11.5187 58.6937 11.2322 58.571 10.9679C58.4483 10.7035 58.2731 10.4669 58.0562 10.2724C57.8392 10.0778 57.5849 9.92944 57.3088 9.8362C57.0327 9.74296 56.7405 9.70683 56.45 9.73C56.1423 9.73348 55.8385 9.79949 55.5571 9.92403C55.2756 10.0486 55.0225 10.229 54.813 10.4544C54.6035 10.6798 54.442 10.9455 54.3383 11.2353C54.2347 11.525 54.191 11.8328 54.21 12.14H49.38ZM53.44 19C53.4316 19.3213 53.4891 19.641 53.6091 19.9392C53.7292 20.2374 53.9091 20.5078 54.1378 20.7337C54.3665 20.9596 54.6391 21.1362 54.9388 21.2525C55.2384 21.3688 55.5588 21.4224 55.88 21.41C58.67 21.41 58.77 18.33 58.77 16.35C57.02 16.35 53.44 16.28 53.44 19ZM76.28 11.87C76.21 10.73 75.13 10.23 73.99 10.23C72.62 10.23 71.99 10.63 71.99 11.74C71.99 14.39 81.62 12.88 81.62 19.18C81.62 22.87 77.12 24.72 74 24.72C70.08 24.72 66.66 23.18 66.59 19.32H71.25C71.35 20.63 72.53 21.32 74 21.32C75.47 21.32 76.42 20.75 76.42 19.45C76.42 18.15 74 17.57 73 17.34C69.78 16.57 66.79 15.86 66.79 11.94C66.78 8.42 71 6.88 74 6.88C77.56 6.88 80.58 8.15 80.81 11.88L76.28 11.87ZM85.15 12.14C85.1155 11.3075 85.3098 10.4814 85.7118 9.75156C86.1137 9.02169 86.708 8.4159 87.43 8C88.9745 7.21254 90.6985 6.84362 92.43 6.93C95.81 6.93 99.6 8.17 99.6 13.23V22.42C99.6435 23.0409 99.7237 23.6586 99.84 24.27H95.28C95.1758 23.5176 95.119 22.7595 95.11 22H95.05C94.5338 22.898 93.775 23.6323 92.8606 24.1187C91.9461 24.6051 90.9131 24.8239 89.88 24.75C86.73 24.75 84.38 22.94 84.38 19.65C84.3908 18.4999 84.7398 17.3785 85.3835 16.4253C86.0272 15.4722 86.9372 14.7296 88 14.29C90.1018 13.5288 92.3404 13.2187 94.57 13.38V11.81C94.5628 11.5192 94.4963 11.2328 94.3747 10.9686C94.2531 10.7043 94.0788 10.4676 93.8626 10.2729C93.6464 10.0782 93.3928 9.92966 93.1172 9.83632C92.8417 9.74297 92.55 9.7068 92.26 9.73C91.9506 9.73077 91.6446 9.7948 91.3608 9.91813C91.0771 10.0415 90.8215 10.2215 90.6098 10.4472C90.3982 10.6729 90.2349 10.9395 90.13 11.2306C90.0252 11.5217 89.9809 11.8312 90 12.14H85.15ZM89.21 19C89.2015 19.3222 89.2593 19.6427 89.38 19.9416C89.5006 20.2406 89.6814 20.5114 89.9112 20.7375C90.141 20.9635 90.4148 21.1399 90.7157 21.2556C91.0165 21.3713 91.338 21.4238 91.66 21.41C94.44 21.41 94.54 18.33 94.54 16.35C92.8 16.35 89.21 16.28 89.21 19ZM108.86 9.32L108.93 9.43C109.49 8.58604 110.263 7.90544 111.171 7.45751C112.079 7.00957 113.09 6.81031 114.1 6.88C115.77 6.88 119.03 8.12 119.63 10.57C119.849 11.4468 119.963 12.3464 119.97 13.25V24.25H114.97V14.09C114.97 12.28 114.44 10.23 111.97 10.23C110.39 10.23 108.97 11.64 108.97 14.09V24.22H103.97V7.38H108.97L108.86 9.32ZM126.07 7.38V4.06L131.07 2.25V7.38H134.86V10.73H131.1V18.55C131.1 20.76 131.43 21.36 133.18 21.36C133.71 21.36 134.25 21.3 134.79 21.26V24.26C133.478 24.5657 132.137 24.7333 130.79 24.76C126.87 24.76 126.03 22.76 126.03 19.06V10.73H122.64V7.38H126.07ZM142.84 17.14C142.84 19.32 143.14 21.36 145.72 21.36C146.416 21.4583 147.123 21.2874 147.697 20.8824C148.271 20.4773 148.669 19.8684 148.81 19.18H153.33C152.9 23.34 149.65 24.72 145.72 24.72C139.95 24.72 137.64 21.46 137.64 15.83C137.64 10.77 140.64 6.88 145.72 6.88C148.87 6.88 151.49 7.95 152.9 10.88C153.346 11.826 153.63 12.8401 153.74 13.88C153.85 14.9496 153.893 16.025 153.87 17.1L142.84 17.14ZM148.67 13.78C148.67 11.94 148.17 10.23 145.72 10.23C143.27 10.23 142.9 11.94 142.84 13.78H148.67ZM167.88 11.73C169.58 11.12 172.42 9.91 174.45 4.84C173.03 5.51 170.45 6.05 167.26 7C164.07 7.95 162.44 11.72 161.96 13V7.51H157.1V24.22H162V20.42C162 20.42 162 17.57 166.33 16.02C167.717 15.6 168.992 14.8758 170.063 13.9C171.134 12.9242 171.973 11.7216 172.52 10.38C172.52 10.38 169.66 12.07 167.92 11.73" fill="#0D0D0D"/>
</g>
<defs>
<clipPath id="clip0_2079_211">
<rect width="174.45" height="24.72" fill="white"/>
</clipPath>
</defs>
</svg>
