<svg width="48" height="48" viewBox="0 0 48 48" fill="none" xmlns="http://www.w3.org/2000/svg">
<path d="M45.9 28.2001C45.7424 28.3183 45.5631 28.4043 45.3723 28.4532C45.1814 28.502 44.9829 28.5129 44.7879 28.485C44.5928 28.4572 44.4052 28.3912 44.2357 28.2908C44.0662 28.1904 43.9182 28.0577 43.8 27.9001C42.8959 26.6848 41.7191 25.6988 40.3643 25.0214C39.0095 24.344 37.5147 23.9942 36 24.0001C35.705 24.0001 35.4166 23.9131 35.1708 23.75C34.925 23.5869 34.7328 23.355 34.6181 23.0832C34.5402 22.8987 34.5001 22.7004 34.5001 22.5001C34.5001 22.2998 34.5402 22.1015 34.6181 21.917C34.7328 21.6452 34.925 21.4133 35.1708 21.2502C35.4166 21.0871 35.705 21.0001 36 21.0001C36.8416 21 37.6664 20.7639 38.3805 20.3186C39.0947 19.8733 39.6697 19.2366 40.0402 18.4809C40.4107 17.7252 40.5618 16.8807 40.4764 16.0435C40.391 15.2062 40.0725 14.4096 39.557 13.7443C39.0416 13.0789 38.3499 12.5714 37.5606 12.2795C36.7712 11.9876 35.9157 11.9228 35.0914 12.0927C34.2671 12.2625 33.5069 12.6602 32.8973 13.2404C32.2876 13.8206 31.8529 14.5602 31.6425 15.3751C31.5932 15.5659 31.5069 15.7452 31.3884 15.9026C31.2698 16.0601 31.1215 16.1927 30.9517 16.2928C30.782 16.3929 30.5941 16.4586 30.399 16.4861C30.2038 16.5136 30.0052 16.5025 29.8144 16.4532C29.6235 16.404 29.4443 16.3176 29.2868 16.1991C29.1294 16.0806 28.9968 15.9322 28.8967 15.7624C28.7966 15.5927 28.7309 15.4049 28.7033 15.2097C28.6758 15.0146 28.687 14.8159 28.7362 14.6251C29.0283 13.4951 29.58 12.4488 30.3476 11.5695C31.1152 10.6902 32.0773 10.0022 33.1576 9.56025C34.2378 9.11827 35.4063 8.93451 36.5701 9.02359C37.7338 9.11266 38.8607 9.47212 39.8611 10.0734C40.8615 10.6746 41.7078 11.501 42.3326 12.4869C42.9574 13.4727 43.3435 14.5908 43.4601 15.7521C43.5768 16.9134 43.4208 18.0859 43.0045 19.1764C42.5883 20.2668 41.9233 21.245 41.0625 22.0332C43.1021 22.9163 44.8752 24.3177 46.2056 26.0982C46.3238 26.2562 46.4096 26.436 46.4583 26.6272C46.5069 26.8184 46.5173 27.0173 46.4889 27.2126C46.4605 27.4078 46.3939 27.5955 46.2928 27.765C46.1918 27.9344 46.0583 28.0823 45.9 28.2001ZM35.7975 39.7501C35.906 39.9208 35.9789 40.1117 36.0117 40.3114C36.0446 40.511 36.0367 40.7152 35.9885 40.9117C35.9404 41.1082 35.853 41.2929 35.7317 41.4547C35.6103 41.6166 35.4574 41.7522 35.2823 41.8535C35.1071 41.9547 34.9133 42.0195 34.7125 42.0439C34.5117 42.0682 34.308 42.0518 34.1137 41.9954C33.9194 41.939 33.7385 41.844 33.5819 41.7159C33.4253 41.5878 33.2963 41.4293 33.2025 41.2501C32.2576 39.6501 30.9118 38.3241 29.298 37.403C27.6842 36.4818 25.8582 35.9973 24 35.9973C22.1418 35.9973 20.3157 36.4818 18.7019 37.403C17.0881 38.3241 15.7424 39.6501 14.7975 41.2501C14.7037 41.4293 14.5747 41.5878 14.4181 41.7159C14.2615 41.844 14.0806 41.939 13.8863 41.9954C13.692 42.0518 13.4883 42.0682 13.2875 42.0439C13.0867 42.0195 12.8928 41.9547 12.7177 41.8535C12.5425 41.7522 12.3897 41.6166 12.2683 41.4547C12.1469 41.2929 12.0596 41.1082 12.0114 40.9117C11.9633 40.7152 11.9554 40.511 11.9882 40.3114C12.0211 40.1117 12.094 39.9208 12.2025 39.7501C13.6567 37.2514 15.8741 35.2851 18.5287 34.1401C17.035 32.9964 15.9372 31.4134 15.3896 29.6135C14.8421 27.8137 14.8723 25.8875 15.4761 24.1057C16.0799 22.3239 17.2268 20.7761 18.7557 19.6799C20.2847 18.5836 22.1187 17.9941 24 17.9941C25.8813 17.9941 27.7153 18.5836 29.2442 19.6799C30.7732 20.7761 31.9201 22.3239 32.5239 24.1057C33.1277 25.8875 33.1579 27.8137 32.6104 29.6135C32.0628 31.4134 30.965 32.9964 29.4712 34.1401C32.1259 35.2851 34.3432 37.2514 35.7975 39.7501ZM24 33.0001C25.1867 33.0001 26.3467 32.6482 27.3334 31.9889C28.3201 31.3296 29.0891 30.3925 29.5433 29.2962C29.9974 28.1998 30.1162 26.9934 29.8847 25.8295C29.6532 24.6657 29.0817 23.5966 28.2426 22.7574C27.4035 21.9183 26.3344 21.3469 25.1705 21.1154C24.0066 20.8839 22.8002 21.0027 21.7039 21.4568C20.6075 21.9109 19.6705 22.68 19.0112 23.6667C18.3519 24.6534 18 25.8134 18 27.0001C18 28.5914 18.6321 30.1175 19.7573 31.2427C20.8826 32.3679 22.4087 33.0001 24 33.0001ZM13.5 22.5001C13.5 22.1023 13.342 21.7207 13.0606 21.4394C12.7793 21.1581 12.3978 21.0001 12 21.0001C11.1584 21 10.3336 20.7639 9.61943 20.3186C8.90525 19.8733 8.33027 19.2366 7.9598 18.4809C7.58932 17.7252 7.43821 16.8807 7.52361 16.0435C7.60901 15.2062 7.92752 14.4096 8.44294 13.7443C8.95836 13.0789 9.65005 12.5714 10.4394 12.2795C11.2288 11.9876 12.0842 11.9228 12.9086 12.0927C13.7329 12.2625 14.493 12.6602 15.1027 13.2404C15.7124 13.8206 16.1471 14.5602 16.3575 15.3751C16.4569 15.7605 16.7054 16.0906 17.0483 16.2928C17.3911 16.495 17.8002 16.5527 18.1856 16.4532C18.571 16.3538 18.9011 16.1053 19.1033 15.7624C19.3055 15.4196 19.3632 15.0105 19.2637 14.6251C18.9717 13.4951 18.4199 12.4488 17.6524 11.5695C16.8848 10.6902 15.9226 10.0022 14.8424 9.56025C13.7622 9.11827 12.5937 8.93451 11.4299 9.02359C10.2661 9.11266 9.13924 9.47212 8.13885 10.0734C7.13846 10.6746 6.2922 11.501 5.6674 12.4869C5.04261 13.4727 4.65652 14.5908 4.53987 15.7521C4.42321 16.9134 4.57921 18.0859 4.99545 19.1764C5.41168 20.2668 6.07667 21.245 6.93749 22.0332C4.89989 22.9172 3.12883 24.3185 1.79999 26.0982C1.56105 26.4165 1.45832 26.8166 1.5144 27.2106C1.57049 27.6046 1.78079 27.9602 2.09905 28.1992C2.41731 28.4381 2.81746 28.5408 3.21146 28.4847C3.60546 28.4287 3.96105 28.2183 4.19999 27.9001C5.10409 26.6848 6.28089 25.6988 7.63566 25.0214C8.99043 24.344 10.4853 23.9942 12 24.0001C12.3978 24.0001 12.7793 23.8421 13.0606 23.5608C13.342 23.2794 13.5 22.8979 13.5 22.5001Z" fill="#0D0D0D"/>
</svg>
