<svg width="48" height="48" viewBox="0 0 48 48" fill="none" xmlns="http://www.w3.org/2000/svg">
<path d="M45.9 28.2C45.7424 28.3182 45.5631 28.4042 45.3723 28.453C45.1814 28.5019 44.9829 28.5128 44.7879 28.4849C44.5928 28.457 44.4052 28.391 44.2357 28.2907C44.0662 28.1903 43.9182 28.0576 43.8 27.9C42.8959 26.6847 41.7191 25.6987 40.3643 25.0213C39.0095 24.3439 37.5147 23.9941 36 24C35.705 23.9999 35.4166 23.9129 35.1708 23.7499C34.925 23.5868 34.7328 23.3549 34.6181 23.0831C34.5402 22.8985 34.5001 22.7003 34.5001 22.5C34.5001 22.2997 34.5402 22.1014 34.6181 21.9168C34.7328 21.6451 34.925 21.4131 35.1708 21.2501C35.4166 21.087 35.705 21 36 21C36.8416 20.9999 37.6664 20.7638 38.3805 20.3185C39.0947 19.8732 39.6697 19.2365 40.0402 18.4808C40.4107 17.7251 40.5618 16.8806 40.4764 16.0433C40.391 15.206 40.0725 14.4095 39.557 13.7441C39.0416 13.0788 38.3499 12.5713 37.5606 12.2794C36.7712 11.9874 35.9157 11.9227 35.0914 12.0926C34.2671 12.2624 33.5069 12.66 32.8973 13.2403C32.2876 13.8205 31.8529 14.5601 31.6425 15.375C31.5932 15.5658 31.5069 15.7451 31.3884 15.9025C31.2698 16.06 31.1215 16.1925 30.9517 16.2926C30.782 16.3928 30.5941 16.4585 30.399 16.486C30.2038 16.5135 30.0052 16.5023 29.8144 16.4531C29.6235 16.4038 29.4443 16.3175 29.2868 16.199C29.1294 16.0805 28.9968 15.9321 28.8967 15.7623C28.7966 15.5926 28.7309 15.4047 28.7033 15.2096C28.6758 15.0145 28.687 14.8158 28.7362 14.625C29.0283 13.4949 29.58 12.4487 30.3476 11.5694C31.1152 10.6901 32.0773 10.0021 33.1576 9.56013C34.2378 9.11815 35.4063 8.93438 36.5701 9.02346C37.7338 9.11254 38.8607 9.472 39.8611 10.0732C40.8615 10.6745 41.7078 11.5009 42.3326 12.4868C42.9574 13.4726 43.3435 14.5907 43.4601 15.752C43.5768 16.9133 43.4208 18.0858 43.0045 19.1762C42.5883 20.2667 41.9233 21.2449 41.0625 22.0331C43.1021 22.9162 44.8752 24.3176 46.2056 26.0981C46.3238 26.2561 46.4096 26.4358 46.4583 26.627C46.5069 26.8183 46.5173 27.0172 46.4889 27.2124C46.4605 27.4077 46.3939 27.5954 46.2928 27.7649C46.1918 27.9343 46.0583 28.0822 45.9 28.2ZM35.7975 39.75C35.906 39.9207 35.9789 40.1116 36.0117 40.3112C36.0446 40.5109 36.0367 40.7151 35.9885 40.9115C35.9404 41.108 35.853 41.2928 35.7317 41.4546C35.6103 41.6165 35.4574 41.7521 35.2823 41.8533C35.1071 41.9546 34.9133 42.0193 34.7125 42.0437C34.5117 42.0681 34.308 42.0516 34.1137 41.9953C33.9194 41.9389 33.7385 41.8438 33.5819 41.7157C33.4253 41.5877 33.2963 41.4292 33.2025 41.25C32.2576 39.65 30.9118 38.324 29.298 37.4028C27.6842 36.4817 25.8582 35.9972 24 35.9972C22.1418 35.9972 20.3157 36.4817 18.7019 37.4028C17.0881 38.324 15.7424 39.65 14.7975 41.25C14.7037 41.4292 14.5747 41.5877 14.4181 41.7157C14.2615 41.8438 14.0806 41.9389 13.8863 41.9953C13.692 42.0516 13.4883 42.0681 13.2875 42.0437C13.0867 42.0193 12.8928 41.9546 12.7177 41.8533C12.5425 41.7521 12.3897 41.6165 12.2683 41.4546C12.1469 41.2928 12.0596 41.108 12.0114 40.9115C11.9633 40.7151 11.9554 40.5109 11.9882 40.3112C12.0211 40.1116 12.094 39.9207 12.2025 39.75C13.6567 37.2513 15.8741 35.285 18.5287 34.14C17.035 32.9963 15.9372 31.4133 15.3896 29.6134C14.8421 27.8135 14.8723 25.8873 15.4761 24.1055C16.0799 22.3238 17.2268 20.776 18.7557 19.6797C20.2847 18.5835 22.1187 17.994 24 17.994C25.8813 17.994 27.7153 18.5835 29.2442 19.6797C30.7732 20.776 31.9201 22.3238 32.5239 24.1055C33.1277 25.8873 33.1579 27.8135 32.6104 29.6134C32.0628 31.4133 30.965 32.9963 29.4712 34.14C32.1259 35.285 34.3432 37.2513 35.7975 39.75ZM24 33C25.1867 33 26.3467 32.6481 27.3334 31.9888C28.3201 31.3295 29.0891 30.3924 29.5433 29.2961C29.9974 28.1997 30.1162 26.9933 29.8847 25.8294C29.6532 24.6655 29.0817 23.5964 28.2426 22.7573C27.4035 21.9182 26.3344 21.3468 25.1705 21.1153C24.0066 20.8837 22.8002 21.0026 21.7039 21.4567C20.6075 21.9108 19.6705 22.6799 19.0112 23.6665C18.3519 24.6532 18 25.8133 18 27C18 28.5913 18.6321 30.1174 19.7573 31.2426C20.8826 32.3678 22.4087 33 24 33ZM13.5 22.5C13.5 22.1021 13.342 21.7206 13.0606 21.4393C12.7793 21.158 12.3978 21 12 21C11.1584 20.9999 10.3336 20.7638 9.61943 20.3185C8.90525 19.8732 8.33027 19.2365 7.9598 18.4808C7.58932 17.7251 7.43821 16.8806 7.52361 16.0433C7.60901 15.206 7.92752 14.4095 8.44294 13.7441C8.95836 13.0788 9.65005 12.5713 10.4394 12.2794C11.2288 11.9874 12.0842 11.9227 12.9086 12.0926C13.7329 12.2624 14.493 12.66 15.1027 13.2403C15.7124 13.8205 16.1471 14.5601 16.3575 15.375C16.4569 15.7604 16.7054 16.0905 17.0483 16.2926C17.3911 16.4948 17.8002 16.5525 18.1856 16.4531C18.571 16.3536 18.9011 16.1052 19.1033 15.7623C19.3055 15.4195 19.3632 15.0104 19.2637 14.625C18.9717 13.4949 18.4199 12.4487 17.6524 11.5694C16.8848 10.6901 15.9226 10.0021 14.8424 9.56013C13.7622 9.11815 12.5937 8.93438 11.4299 9.02346C10.2661 9.11254 9.13924 9.472 8.13885 10.0732C7.13846 10.6745 6.2922 11.5009 5.6674 12.4868C5.04261 13.4726 4.65652 14.5907 4.53987 15.752C4.42321 16.9133 4.57921 18.0858 4.99545 19.1762C5.41168 20.2667 6.07667 21.2449 6.93749 22.0331C4.89989 22.917 3.12883 24.3184 1.79999 26.0981C1.56105 26.4164 1.45832 26.8165 1.5144 27.2105C1.57049 27.6045 1.78079 27.9601 2.09905 28.199C2.41731 28.438 2.81746 28.5407 3.21146 28.4846C3.60546 28.4285 3.96105 28.2182 4.19999 27.9C5.10409 26.6847 6.28089 25.6987 7.63566 25.0213C8.99043 24.3439 10.4853 23.9941 12 24C12.3978 24 12.7793 23.8419 13.0606 23.5606C13.342 23.2793 13.5 22.8978 13.5 22.5Z" fill="#0D0D0D"/>
</svg>
