<svg width="140" height="57" viewBox="0 0 140 57" fill="none" xmlns="http://www.w3.org/2000/svg">
<path fill-rule="evenodd" clip-rule="evenodd" d="M38.5695 17.25L27.06 39.75H16.2493L21.066 30.425H20.8499C16.8761 35.5835 10.9471 38.9794 2.49927 39.75V30.5541C2.49927 30.5541 7.90358 30.2349 11.0806 26.8947H2.49927V17.2502H12.1438V25.1826L12.3602 25.1818L16.3014 17.2502H23.5953V25.1323L23.8116 25.132L27.9006 17.25H38.5695Z" fill="#0D0D0D"/>
<path d="M101.332 37.2665H104.438V19.4375H101.332V37.2665Z" fill="#0D0D0D"/>
<path fill-rule="evenodd" clip-rule="evenodd" d="M84.2085 37.0844C84.8835 37.3651 85.57 37.5054 86.2678 37.5054C87.4207 37.5054 88.4523 37.2248 89.3626 36.6634C90.2727 36.1022 90.9782 35.3286 91.4788 34.3424C91.9795 33.3488 92.2297 32.2223 92.2297 30.9632C92.2297 29.7041 91.9718 28.5777 91.4561 27.584C90.9402 26.5904 90.2235 25.8205 89.3056 25.2744C88.3878 24.7206 87.3448 24.4476 86.1767 24.4552C85.4335 24.4552 84.7205 24.5993 84.0377 24.8875C83.3551 25.1758 82.7862 25.5854 82.3311 26.1163C82.296 26.1567 82.2618 26.1976 82.2287 26.2388V19.4489H79.1112V37.2666H82.206L82.1997 35.6021C82.2797 35.7002 82.3653 35.7961 82.4562 35.8898C82.9492 36.3981 83.5333 36.7962 84.2085 37.0844ZM87.3942 34.2059C86.886 34.5169 86.3057 34.6724 85.6533 34.6724C85.0086 34.6724 84.417 34.5131 83.8785 34.1946C83.3398 33.8683 82.9113 33.4247 82.5927 32.8633C82.2817 32.3021 82.1262 31.6648 82.1262 30.9518C82.1187 30.2388 82.2703 29.6017 82.5813 29.0404C82.9 28.4715 83.3285 28.0316 83.8671 27.7206C84.4056 27.402 85.0011 27.2465 85.6533 27.2541C86.3057 27.2465 86.886 27.3982 87.3942 27.7092C87.91 28.0126 88.3043 28.4488 88.5775 29.0176C88.8581 29.5789 88.9985 30.2237 88.9985 30.9518C88.9985 31.6801 88.8581 32.3248 88.5775 32.8861C88.3043 33.4474 87.91 33.8873 87.3942 34.2059Z" fill="#0D0D0D"/>
<path d="M43.0693 20.5184H46.6192L49.7947 32.1154L53.1728 20.5184H56.1311L59.7947 31.8827L62.844 20.5184H66.098L61.2966 37.2665H58.236L54.5105 26.1645L51.0907 37.2665H47.996L43.0693 20.5184Z" fill="#0D0D0D"/>
<path fill-rule="evenodd" clip-rule="evenodd" d="M71.3405 37.5623C70.104 37.5699 68.989 37.2968 67.9954 36.7431C67.0093 36.1818 66.2319 35.4043 65.6629 34.4106C65.1017 33.417 64.821 32.283 64.821 31.0086C64.821 29.7723 65.1093 28.6535 65.6858 27.6523C66.2622 26.651 67.0434 25.8697 68.0295 25.3084C69.0157 24.7471 70.1154 24.4665 71.329 24.4665C72.6944 24.4665 73.889 24.7699 74.913 25.3767C75.9447 25.9835 76.7145 26.8444 77.2228 27.9595C77.7385 29.0669 77.9244 30.3374 77.7803 31.771H68.0344C68.0617 32.3421 68.2042 32.8618 68.4619 33.3298C68.7502 33.8455 69.1522 34.2475 69.6679 34.5358C70.1838 34.824 70.7602 34.9681 71.3974 34.9681C71.8828 34.9605 72.3342 34.8771 72.7513 34.7179C73.1685 34.551 73.5212 34.3273 73.8094 34.0465C74.1053 33.7659 74.3139 33.4474 74.4353 33.0909H77.6893C77.4921 33.9631 77.0977 34.7406 76.506 35.4233C75.9143 36.0984 75.171 36.6255 74.2759 37.0048C73.3809 37.384 72.4024 37.5699 71.3405 37.5623ZM68.4733 28.6421C68.2915 28.9591 68.1655 29.3004 68.0954 29.6661H74.5558C74.5089 29.2041 74.3663 28.7832 74.128 28.4032C73.8549 27.9557 73.4833 27.6105 73.013 27.3678C72.5428 27.1175 72.0118 26.9924 71.4202 26.9924C70.7906 26.9924 70.2179 27.1365 69.702 27.4247C69.1863 27.7129 68.7767 28.1188 68.4733 28.6421Z" fill="#0D0D0D"/>
<path d="M94.517 24.7282C94.517 23.7118 94.7483 22.8092 95.211 22.0203C95.6736 21.2239 96.3223 20.6057 97.1566 20.1657C97.9985 19.7182 98.9809 19.4868 100.103 19.4717V22.2365C99.58 22.2441 99.1325 22.354 98.7609 22.5664C98.3968 22.7712 98.1161 23.0708 97.9189 23.4653C97.7374 23.8284 97.6394 24.2494 97.625 24.7282H100.035V27.3565H97.6232V37.2665H94.517V27.3565H92.5145V24.7282H94.517Z" fill="#0D0D0D"/>
<path fill-rule="evenodd" clip-rule="evenodd" d="M112.334 37.5395C111.067 37.5395 109.933 37.2626 108.932 36.709C107.938 36.1476 107.157 35.374 106.588 34.3878C106.027 33.3942 105.746 32.2678 105.746 31.0086C105.746 29.742 106.027 28.6117 106.588 27.6181C107.157 26.6168 107.938 25.8393 108.932 25.2856C109.933 24.7319 111.067 24.455 112.334 24.455C113.608 24.455 114.746 24.7319 115.747 25.2856C116.756 25.8393 117.541 26.613 118.103 27.6067C118.664 28.6003 118.948 29.7343 118.956 31.0086C118.948 32.2678 118.664 33.3942 118.103 34.3878C117.549 35.374 116.768 36.1476 115.759 36.709C114.75 37.2626 113.608 37.5395 112.334 37.5395ZM112.334 34.6837C113.002 34.6837 113.593 34.532 114.109 34.2286C114.625 33.9176 115.023 33.4852 115.304 32.9315C115.584 32.3702 115.725 31.7292 115.725 31.0086C115.725 30.2805 115.584 29.6357 115.304 29.0744C115.023 28.5131 114.625 28.0808 114.109 27.7774C113.593 27.4664 113.002 27.3109 112.334 27.3109C111.674 27.3109 111.086 27.4664 110.57 27.7774C110.062 28.0808 109.668 28.5131 109.387 29.0744C109.107 29.6357 108.97 30.2805 108.978 31.0086C108.978 31.7292 109.118 32.3702 109.399 32.9315C109.687 33.4852 110.081 33.9176 110.582 34.2286C111.09 34.532 111.674 34.6837 112.334 34.6837Z" fill="#0D0D0D"/>
<path d="M122.312 24.7282H118.854L122.597 37.2665H125.623L128.085 29.2583L130.743 37.2665H133.724L137.479 24.7282H134.35L132.22 32.5325L129.867 24.7282H126.841L124.499 32.7044L122.312 24.7282Z" fill="#0D0D0D"/>
</svg>
